<svg xmlns="http://www.w3.org/2000/svg" width="147" height="150" viewBox="0 0 147 150" fill="none"><path d="M9.31231 51.5444L9.93816 50.1119C10.0056 49.9576 10.123 49.8995 10.2903 49.9376C11.2062 50.1052 11.9169 49.6102 12.4227 48.4526C12.6966 47.8256 12.7892 47.2978 12.7004 46.8693C12.602 46.4365 12.3449 46.13 11.9291 45.9497C11.2233 45.6437 10.5711 45.9519 9.97267 46.8742L9.08129 48.2432C7.89453 50.0119 6.51795 50.5567 4.95155 49.8776C4.03299 49.4794 3.44626 48.835 3.19138 47.9443C2.92682 47.0494 3.06006 45.9943 3.59108 44.7788C4.10103 43.6116 4.75552 42.8111 5.55457 42.3773C6.35362 41.9436 7.2625 41.8901 8.28122 42.217C8.30056 42.2254 8.32473 42.2359 8.35374 42.2485C8.47944 42.303 8.50857 42.4074 8.44114 42.5617L7.81529 43.9942C7.75208 44.1389 7.63196 44.1901 7.45494 44.1478C6.97099 44.0183 6.55795 44.0687 6.21583 44.299C5.87791 44.5196 5.57831 44.929 5.31701 45.5271C4.78177 46.7521 4.93476 47.547 5.77597 47.9117C6.12406 48.0626 6.45442 48.0567 6.76705 47.8939C7.07 47.7269 7.42068 47.3454 7.81908 46.7494L8.72496 45.3867C9.79049 43.7376 11.1161 43.2567 12.7019 43.9442C13.6978 44.3759 14.3217 45.0537 14.5736 45.9775C14.8255 46.9013 14.686 47.971 14.1549 49.1864C13.645 50.3536 12.9842 51.1686 12.1725 51.6313C11.3608 52.094 10.4586 52.1848 9.46591 51.9036C9.44657 51.8952 9.42723 51.8868 9.40789 51.8784C9.27252 51.8197 9.24066 51.7084 9.31231 51.5444Z" fill="black"></path><path d="M17.0157 42.3818L8.3164 36.5131C8.15918 36.4071 8.13385 36.2757 8.24041 36.1189L10.5936 32.6576C11.3396 31.5605 12.1919 30.8971 13.1506 30.6675C14.1094 30.4379 15.0822 30.656 16.0692 31.3218C17.0649 31.9935 17.6336 32.8154 17.7754 33.7874C17.9172 34.7595 17.6151 35.7941 16.8692 36.8912L15.5461 38.8374L18.2056 40.6316C18.3628 40.7376 18.3882 40.869 18.2816 41.0258L17.4114 42.3058C17.3048 42.4625 17.1729 42.4879 17.0157 42.3818ZM13.9215 37.7414L15.1913 35.8736C15.588 35.2902 15.7587 34.7767 15.7036 34.3331C15.6457 33.8749 15.3591 33.4719 14.8437 33.1243C13.8393 32.4467 12.9464 32.6826 12.1649 33.832L10.8951 35.6997L13.9215 37.7414Z" fill="black"></path><path d="M18.5921 22.9206L19.6832 21.8221C19.8168 21.6876 19.9511 21.6869 20.0861 21.82L27.5577 29.184C27.6928 29.3171 27.6935 29.4509 27.5599 29.5854L26.4688 30.6839C26.3352 30.8184 26.2008 30.8191 26.0658 30.686L18.5942 23.322C18.4592 23.1889 18.4585 23.0551 18.5921 22.9206Z" fill="black"></path><path d="M27.7371 16.6497C28.0049 15.1343 28.8195 13.9068 30.1809 12.9672C31.2821 12.2072 32.4494 11.8558 33.6827 11.913C34.91 11.9615 36.0004 12.4499 36.9541 13.3782C36.9868 13.4068 37.0122 13.434 37.0302 13.46C37.1024 13.5637 37.0691 13.6634 36.9303 13.7592L35.5777 14.6928C35.4389 14.7885 35.3084 14.7762 35.1862 14.6559C34.6126 14.1818 33.9848 13.9434 33.3028 13.9407C32.6294 13.9321 31.9676 14.1522 31.3173 14.601C30.4415 15.2054 29.9302 15.9741 29.7834 16.907C29.6366 17.84 29.8819 18.7646 30.5192 19.6809C31.1565 20.5971 31.9394 21.1507 32.8678 21.3415C33.7962 21.5324 34.6983 21.3256 35.5741 20.7212C36.2244 20.2723 36.6638 19.7324 36.8922 19.1013C37.1293 18.4643 37.1258 17.7951 36.8817 17.0935C36.8116 16.9373 36.8458 16.8113 36.9846 16.7155L38.3373 15.7819C38.476 15.6862 38.5844 15.6945 38.6626 15.8069C38.6806 15.8328 38.6974 15.8661 38.7127 15.9066C39.2442 17.1135 39.3201 18.3021 38.9406 19.4724C38.555 20.634 37.8117 21.5949 36.7104 22.3549C35.3491 23.2945 33.9092 23.623 32.3908 23.3404C30.8663 23.0491 29.6442 22.2422 28.7243 20.9197C27.8044 19.5971 27.4753 18.1738 27.7371 16.6497Z" fill="black"></path><path d="M41.1819 6.98804L42.5966 6.35683C42.7699 6.27953 42.8953 6.3273 42.973 6.50011L47.2728 16.0627C47.3505 16.2355 47.3028 16.3605 47.1295 16.4378L45.7148 17.069C45.5416 17.1463 45.4161 17.0986 45.3384 16.9258L41.0386 7.3632C40.9609 7.19039 41.0087 7.06533 41.1819 6.98804Z" fill="black"></path><path d="M52.1868 2.88947L59.1514 1.21879C59.3359 1.17454 59.4504 1.24448 59.495 1.42862L59.8177 2.76367C59.8622 2.94781 59.7922 3.06201 59.6077 3.10627L54.4265 4.34914L55.0424 6.89646L59.1166 5.91913C59.3011 5.87488 59.4156 5.94482 59.4601 6.12896L59.7791 7.44866C59.8237 7.63281 59.7537 7.74701 59.5692 7.79126L55.4949 8.76859L56.1107 11.3159L61.3535 10.0583C61.5379 10.014 61.6525 10.084 61.697 10.2681L62.0197 11.6032C62.0642 11.7873 61.9942 11.9015 61.8097 11.9458L54.7836 13.6312C54.5991 13.6755 54.4846 13.6055 54.4401 13.4214L51.9768 3.23207C51.9323 3.04793 52.0023 2.93373 52.1868 2.88947Z" fill="black"></path><path d="M65.6413 8.14265L67.2046 8.06236C67.3731 8.05371 67.4774 8.13265 67.5177 8.29919C67.7751 9.19223 68.5354 9.60631 69.7987 9.54143C70.4829 9.50628 70.9975 9.3534 71.3424 9.08278C71.6867 8.80165 71.8472 8.43512 71.8238 7.98319C71.7841 7.21597 71.2175 6.77086 70.1239 6.64789L68.4993 6.46261C66.3848 6.19184 65.2834 5.20516 65.1953 3.50255C65.1436 2.50411 65.4605 1.69222 66.1459 1.0669C66.8308 0.431067 67.8364 0.0790881 69.1629 0.0109619C70.4367 -0.0544608 71.446 0.172958 72.1907 0.693217C72.9354 1.21348 73.3878 2.00166 73.548 3.05775C73.5491 3.07877 73.5505 3.10505 73.5521 3.13658C73.5592 3.27321 73.4785 3.34585 73.3101 3.3545L71.7467 3.43479C71.5888 3.4429 71.4894 3.35843 71.4486 3.18138C71.3494 2.6912 71.1203 2.34468 70.7615 2.14181C70.4132 1.9384 69.9127 1.85346 69.26 1.88698C67.923 1.95565 67.2782 2.44717 67.3255 3.36153C67.3451 3.73989 67.4974 4.03239 67.7826 4.23904C68.0672 4.43519 68.5654 4.5782 69.2773 4.6681L70.9026 4.86914C72.856 5.08495 73.8773 6.05467 73.9665 7.7783C74.0226 8.86083 73.6924 9.72081 72.9759 10.3583C72.2595 10.9957 71.238 11.3485 69.9116 11.4166C68.6377 11.4821 67.6127 11.2555 66.8364 10.7368C66.0601 10.2182 65.5772 9.45264 65.3875 8.44021C65.3865 8.41919 65.3854 8.39817 65.3843 8.37715C65.3767 8.23001 65.4623 8.15184 65.6413 8.14265Z" fill="black"></path><path d="M90.4115 10.1334L91.8987 10.6212C92.0589 10.6738 92.1276 10.7849 92.1048 10.9547C92.021 11.8798 92.58 12.5395 93.7818 12.9337C94.4327 13.1472 94.9681 13.1899 95.3879 13.0617C95.811 12.9235 96.0935 12.6396 96.2356 12.2098C96.4767 11.4803 96.1096 10.8614 95.1343 10.3532L93.6862 9.59577C91.8122 8.58232 91.1428 7.2661 91.678 5.64709C91.9918 4.69768 92.5817 4.05482 93.4477 3.71853C94.317 3.37224 95.3826 3.40604 96.6444 3.81992C97.8562 4.21737 98.7151 4.79262 99.221 5.54566C99.7269 6.2987 99.8631 7.19633 99.6296 8.23855C99.623 8.25854 99.6148 8.28353 99.6049 8.31351C99.5619 8.44343 99.4603 8.48211 99.3001 8.42955L97.8129 7.94177C97.6627 7.8925 97.6006 7.77799 97.6267 7.59824C97.7119 7.10553 97.6239 6.70005 97.3628 6.38178C97.1117 6.06679 96.6757 5.80748 96.0548 5.60382C94.7829 5.18666 94.0033 5.41281 93.7159 6.28227C93.5969 6.64205 93.633 6.96958 93.824 7.26485C94.0183 7.55013 94.4311 7.86278 95.0625 8.20278L96.5055 8.97518C98.2492 9.87939 98.8501 11.151 98.3083 12.79C97.9681 13.8194 97.3483 14.5023 96.4489 14.8387C95.5496 15.1751 94.469 15.1364 93.2071 14.7225C91.9953 14.3251 91.1215 13.7449 90.5855 12.982C90.0495 12.2191 89.8767 11.3316 90.0669 10.3195C90.0735 10.2995 90.0801 10.2795 90.0867 10.2595C90.133 10.1196 90.2412 10.0776 90.4115 10.1334Z" fill="black"></path><path d="M105.037 7.57448C105.128 7.40858 105.257 7.37121 105.424 7.46235L112.521 11.3511C112.687 11.4422 112.724 11.5707 112.633 11.7366L111.953 12.967C111.862 13.1329 111.733 13.1703 111.566 13.0791L108.947 11.6436L104.695 19.3438C104.603 19.5097 104.474 19.5471 104.308 19.456L102.949 18.7116C102.783 18.6205 102.746 18.492 102.837 18.3261L107.089 10.6259L104.469 9.1904C104.303 9.09926 104.266 8.97074 104.357 8.80485L105.037 7.57448Z" fill="black"></path><path d="M112.872 18.0872C113.897 16.8441 115.182 16.147 116.727 15.9958C118.278 15.8365 119.682 16.2706 120.937 17.2979C122.193 18.3253 122.893 19.6124 123.037 21.1593C123.188 22.6981 122.751 24.089 121.726 25.3321C120.701 26.5752 119.416 27.2723 117.871 27.4235C116.32 27.5828 114.916 27.1488 113.661 26.1214C112.405 25.094 111.702 23.811 111.551 22.2722C111.407 20.7253 111.847 19.3303 112.872 18.0872ZM114.56 19.4681C113.87 20.305 113.556 21.1983 113.619 22.1482C113.676 23.1062 114.112 23.9187 114.927 24.5858C115.742 25.2529 116.624 25.5252 117.572 25.4026C118.526 25.2718 119.348 24.788 120.038 23.9512C120.728 23.1143 121.042 22.221 120.979 21.2711C120.922 20.3132 120.486 19.5006 119.671 18.8335C118.855 18.1664 117.971 17.8982 117.016 18.0289C116.069 18.1516 115.25 18.6313 114.56 19.4681Z" fill="black"></path><path d="M127.837 23.9114L130.545 27.1246C131.387 28.1232 131.79 29.1172 131.756 30.1066C131.73 31.0893 131.277 31.9489 130.396 32.6855C129.806 33.1788 129.177 33.4783 128.508 33.5842C127.848 33.6834 127.202 33.5786 126.57 33.2698C126.737 34.5304 126.219 35.862 125.018 37.2646C124.993 37.2996 124.968 37.3273 124.943 37.3476C124.846 37.4287 124.74 37.4008 124.625 37.2639L123.505 35.9351C123.39 35.7982 123.387 35.6636 123.496 35.5313C124.282 34.5851 124.697 33.7371 124.74 32.9872C124.79 32.2454 124.507 31.5081 123.889 30.7752L123.309 30.0867L120.751 32.2254C120.606 32.347 120.472 32.3353 120.35 32.1904L119.352 31.0065C119.23 30.8616 119.242 30.7283 119.387 30.6067L127.436 23.8764C127.582 23.7548 127.715 23.7664 127.837 23.9114ZM124.836 28.8095L126.292 30.5369C127.194 31.608 128.094 31.7685 128.991 31.0185C129.88 30.2752 129.873 29.368 128.971 28.2969L127.515 26.5695L124.836 28.8095Z" fill="black"></path><path d="M136.83 35.7295L140.354 41.9549C140.448 42.1198 140.412 42.2487 140.246 42.3416L139.048 43.0151C138.882 43.108 138.753 43.072 138.659 42.9071L136.037 38.2758L133.75 39.561L135.812 43.2027C135.905 43.3676 135.869 43.4965 135.704 43.5894L134.519 44.2552C134.353 44.3481 134.224 44.3121 134.131 44.1472L132.069 40.5054L129.781 41.7905L132.434 46.4767C132.528 46.6416 132.492 46.7706 132.326 46.8635L131.128 47.537C130.962 47.6299 130.833 47.5939 130.739 47.429L127.184 41.1486C127.09 40.9837 127.126 40.8548 127.292 40.7619L136.442 35.6215C136.607 35.5286 136.736 35.5646 136.83 35.7295Z" fill="black"></path><path d="M137.213 64.5073C137.599 64.4516 137.924 64.5269 138.189 64.7333C138.463 64.9382 138.629 65.2334 138.685 65.6187C138.741 66.0041 138.667 66.3338 138.461 66.608C138.267 66.8807 137.976 67.0449 137.59 67.1006C137.204 67.1563 136.879 67.081 136.615 66.8746C136.34 66.6697 136.175 66.3745 136.118 65.9892C136.062 65.6039 136.132 65.2748 136.326 65.0022C136.532 64.728 136.827 64.563 137.213 64.5073Z" fill="black"></path><path d="M146.774 87.6493C146.959 87.6916 147.031 87.8051 146.988 87.9897L145.173 95.8662C145.13 96.0508 145.016 96.122 144.831 96.0797L143.46 95.766C143.275 95.7237 143.203 95.6102 143.246 95.4256L143.916 92.5181L135.331 90.5546C135.146 90.5123 135.075 90.3988 135.118 90.2142L135.465 88.7066C135.508 88.522 135.621 88.4509 135.806 88.4932L144.391 90.4566L145.061 87.549C145.104 87.3644 145.218 87.2933 145.403 87.3356L146.774 87.6493Z" fill="black"></path><path d="M133.865 96.2346L141.837 104.286C141.947 104.402 141.97 104.533 141.907 104.677L141.206 106.284C141.142 106.428 141.03 106.5 140.87 106.499L129.516 106.19C129.459 106.188 129.412 106.179 129.373 106.162C129.267 106.116 129.247 106.016 129.315 105.861L129.966 104.371C130.033 104.217 130.143 104.149 130.295 104.17L132.376 104.263L134.406 99.6181L132.919 98.1647C132.8 98.0674 132.775 97.9416 132.842 97.7873L133.493 96.2969C133.556 96.1522 133.636 96.1009 133.733 96.1428C133.772 96.1595 133.816 96.1901 133.865 96.2346ZM134.393 104.345L139.342 104.546L139.361 104.503L135.841 101.032L134.393 104.345Z" fill="black"></path><path d="M130.601 109.925L129.721 111.218C129.627 111.357 129.501 111.393 129.343 111.325C128.474 110.992 127.684 111.348 126.973 112.393C126.588 112.959 126.4 113.461 126.409 113.898C126.426 114.342 126.622 114.69 126.997 114.944C127.635 115.374 128.333 115.19 129.091 114.394L130.22 113.212C131.712 111.691 133.166 111.408 134.581 112.362C135.411 112.922 135.869 113.663 135.955 114.585C136.051 115.513 135.725 116.526 134.979 117.623C134.263 118.677 133.472 119.343 132.607 119.623C131.741 119.903 130.838 119.789 129.896 119.281C129.879 119.269 129.857 119.254 129.831 119.237C129.717 119.16 129.708 119.052 129.803 118.913L130.682 117.62C130.771 117.489 130.898 117.461 131.064 117.535C131.516 117.751 131.932 117.777 132.311 117.613C132.683 117.458 133.053 117.111 133.42 116.571C134.172 115.465 134.168 114.656 133.408 114.143C133.094 113.931 132.768 113.877 132.431 113.979C132.102 114.088 131.687 114.398 131.186 114.911L130.044 116.084C128.693 117.51 127.301 117.739 125.868 116.773C124.969 116.166 124.48 115.386 124.403 114.431C124.325 113.477 124.659 112.452 125.405 111.355C126.122 110.301 126.921 109.621 127.805 109.315C128.688 109.009 129.592 109.085 130.516 109.544C130.533 109.556 130.551 109.567 130.568 109.579C130.69 109.662 130.701 109.777 130.601 109.925Z" fill="black"></path><path d="M129.057 124.633C129.192 124.766 129.193 124.9 129.059 125.035L123.359 130.774C123.225 130.908 123.091 130.909 122.956 130.776L121.954 129.789C121.819 129.656 121.819 129.522 121.952 129.388L124.057 127.269L117.789 121.092C117.654 120.959 117.653 120.825 117.787 120.69L118.878 119.592C119.012 119.457 119.146 119.457 119.281 119.59L125.549 125.767L127.653 123.648C127.786 123.514 127.921 123.513 128.056 123.646L129.057 124.633Z" fill="black"></path><path d="M117.981 135.135L112.089 139.201C111.933 139.309 111.801 139.285 111.692 139.13L110.908 138.001C110.8 137.846 110.824 137.714 110.98 137.607L115.363 134.581L113.866 132.429L110.419 134.808C110.263 134.915 110.131 134.892 110.023 134.736L109.247 133.621C109.139 133.465 109.163 133.334 109.319 133.226L112.765 130.847L111.268 128.695L106.833 131.756C106.677 131.863 106.545 131.839 106.437 131.684L105.652 130.556C105.544 130.4 105.568 130.269 105.724 130.161L111.668 126.058C111.824 125.951 111.956 125.975 112.064 126.13L118.053 134.74C118.161 134.896 118.137 135.027 117.981 135.135Z" fill="black"></path><path d="M92.5206 139.113C92.805 140.289 92.3054 141.497 91.0216 142.735L91.0062 142.739C92.0385 143.466 92.645 144.202 92.8255 144.949C93.0036 145.686 92.874 146.361 92.4367 146.974C92.002 147.598 91.3285 148.019 90.4162 148.238C89.5245 148.452 88.7514 148.394 88.0969 148.064C87.4424 147.734 87.0261 147.201 86.848 146.464C86.5858 145.38 87.018 144.297 88.1445 143.215L88.3687 142.998L86.1338 141.424C86.0585 141.875 86.054 142.417 86.1204 143.051C86.1292 143.222 86.0568 143.326 85.903 143.363L84.6423 143.665C84.4783 143.704 84.3728 143.627 84.3258 143.432C84.3184 143.402 84.3097 143.366 84.2999 143.325C84.1914 142.204 84.2726 141.194 84.5434 140.296L82.5831 138.915C82.517 138.866 82.4778 138.816 82.4654 138.765C82.458 138.734 82.4596 138.696 82.4702 138.65C82.4808 138.604 82.5425 138.568 82.6552 138.541L84.1465 138.183C84.2798 138.151 84.4049 138.175 84.5219 138.255L85.3038 138.798C85.9786 137.911 86.9156 137.324 88.1148 137.036C89.2217 136.771 90.1802 136.833 90.9903 137.223C91.8003 137.613 92.3104 138.243 92.5206 139.113ZM89.8455 138.813C89.4685 138.643 89.0032 138.625 88.4497 138.758C87.7732 138.92 87.227 139.262 86.8109 139.784L89.6751 141.808L89.7022 141.786C90.4444 141.088 90.7339 140.402 90.5707 139.726C90.4644 139.287 90.2226 138.982 89.8455 138.813ZM89.8981 144.076L89.6426 143.894L89.3409 144.194C88.7224 144.775 88.4762 145.327 88.6023 145.849C88.6814 146.176 88.8521 146.411 89.1143 146.554C89.3868 146.694 89.6973 146.722 90.0458 146.639C90.3943 146.555 90.6578 146.389 90.8363 146.141C91.0045 145.895 91.0528 145.623 90.9811 145.327C90.8896 144.948 90.5286 144.531 89.8981 144.076Z" fill="black"></path><path d="M66.4563 149.996L62.6165 149.483C61.3732 149.317 60.4568 148.934 59.8673 148.335C59.2674 147.735 59.0299 146.97 59.1549 146.042C59.3135 144.863 59.8876 144.154 60.8771 143.915L60.8834 143.868C60.2078 143.672 59.7129 143.319 59.3985 142.81C59.0723 142.31 58.959 141.689 59.0587 140.949C59.1893 139.979 59.6299 139.273 60.3807 138.832C61.1196 138.4 62.1316 138.269 63.4167 138.441L67.9304 139.044C68.1184 139.069 68.1998 139.175 68.1746 139.363L66.7763 149.752C66.751 149.939 66.6443 150.021 66.4563 149.996ZM63.3689 140.218C62.6584 140.123 62.1355 140.176 61.8003 140.375C61.4545 140.573 61.2472 140.928 61.1785 141.439C61.1083 141.96 61.2144 142.357 61.497 142.628C61.7677 142.908 62.2583 143.096 62.9688 143.191L65.4921 143.528L65.8922 140.555L63.3689 140.218ZM64.8898 148.003L65.2604 145.249L63.3484 144.994C62.7006 144.907 62.215 144.959 61.8915 145.149C61.5695 145.329 61.3769 145.654 61.3137 146.123C61.2505 146.593 61.3505 146.956 61.6135 147.215C61.8752 147.483 62.3299 147.661 62.9777 147.747L64.8898 148.003Z" fill="black"></path><path d="M51.9112 147.307L45.1062 145.075C44.9259 145.016 44.8655 144.897 44.925 144.717L45.3561 143.413C45.4156 143.233 45.5354 143.172 45.7157 143.231L50.7782 144.892L51.6007 142.403L47.6198 141.098C47.4396 141.039 47.3792 140.919 47.4386 140.739L47.8648 139.45C47.9242 139.27 48.0441 139.21 48.2244 139.269L52.2052 140.575L53.0278 138.086L47.9052 136.406C47.725 136.347 47.6646 136.227 47.724 136.047L48.1551 134.743C48.2146 134.563 48.3345 134.503 48.5147 134.562L55.3798 136.814C55.5601 136.873 55.6205 136.992 55.561 137.172L52.2708 147.126C52.2114 147.306 52.0915 147.366 51.9112 147.307Z" fill="black"></path><path d="M39.0124 142.312L37.6539 141.568C37.4876 141.477 37.4502 141.349 37.5418 141.183L41.7938 133.482L37.4413 131.098C37.2749 131.006 37.2376 130.878 37.3292 130.712L38.0086 129.482C38.1002 129.316 38.2291 129.278 38.3955 129.37L44.356 132.635C44.5223 132.727 44.5597 132.855 44.4681 133.021L39.3993 142.2C39.3077 142.366 39.1787 142.404 39.0124 142.312Z" fill="black"></path><path d="M25.4684 133.597L24.27 132.616C24.1232 132.496 24.1101 132.363 24.2307 132.217L30.904 124.125C31.0246 123.978 31.1582 123.965 31.305 124.085L32.5034 125.066C32.6502 125.186 32.6633 125.319 32.5427 125.466L25.8694 133.558C25.7488 133.704 25.6152 133.717 25.4684 133.597Z" fill="black"></path><path d="M16.8801 125.615L12.2689 120.143C12.1467 119.998 12.1584 119.865 12.3038 119.743L13.3584 118.861C13.5039 118.74 13.6377 118.751 13.7599 118.896L17.1903 122.967L19.2025 121.285L16.505 118.083C16.3829 117.938 16.3945 117.805 16.54 117.684L17.5825 116.812C17.728 116.69 17.8618 116.702 17.9839 116.847L20.6814 120.048L22.6937 118.365L19.2226 114.246C19.1004 114.101 19.1121 113.968 19.2575 113.846L20.3121 112.965C20.4576 112.843 20.5914 112.855 20.7136 113L25.3655 118.52C25.4876 118.665 25.476 118.798 25.3305 118.92L17.2815 125.65C17.136 125.772 17.0022 125.76 16.8801 125.615Z" fill="black"></path><path d="M9.50939 116.296L8.69242 114.853C8.61462 114.715 8.62705 114.588 8.72973 114.47L14.2475 107.983L14.2319 107.955L5.812 109.316C5.65226 109.334 5.53608 109.278 5.46346 109.15L4.63871 107.693C4.55572 107.546 4.56475 107.445 4.66581 107.388C4.70255 107.367 4.74908 107.353 4.80539 107.346L15.9748 105.708C16.1345 105.691 16.2507 105.746 16.3233 105.874L17.1169 107.276C17.1947 107.414 17.1823 107.541 17.0796 107.659L9.89392 116.333C9.85836 116.378 9.82221 116.41 9.78546 116.431C9.68441 116.487 9.59238 116.442 9.50939 116.296Z" fill="black"></path><path d="M2.34041 102.132L0.0234462 95.3659C-0.0379304 95.1866 0.021195 95.0665 0.200822 95.0054L1.50312 94.563C1.68275 94.5019 1.80325 94.561 1.86463 94.7403L3.58828 99.7741L6.07313 98.9299L4.71773 94.9715C4.65635 94.7923 4.71548 94.6721 4.8951 94.6111L6.18243 94.1737C6.36206 94.1127 6.48256 94.1718 6.54394 94.351L7.89934 98.3094L10.3842 97.4651L8.64006 92.3715C8.57869 92.1923 8.63781 92.0721 8.81744 92.0111L10.1197 91.5686C10.2994 91.5076 10.4199 91.5667 10.4812 91.7459L12.8187 98.5723C12.88 98.7515 12.8209 98.8717 12.6413 98.9327L2.70192 102.31C2.52229 102.371 2.40179 102.312 2.34041 102.132Z" fill="black"></path><path d="M7.27227 73.7731C6.88256 73.7572 6.57681 73.6236 6.35503 73.3724C6.12271 73.1206 6.01454 72.8002 6.03052 72.4112C6.0465 72.0221 6.18058 71.7116 6.43276 71.4796C6.67441 71.2472 6.99009 71.139 7.37979 71.1549C7.7695 71.1707 8.07525 71.3043 8.29703 71.5556C8.52935 71.8073 8.63752 72.1277 8.62154 72.5168C8.60556 72.9058 8.47675 73.2166 8.2351 73.449C7.98292 73.681 7.66197 73.789 7.27227 73.7731Z" fill="black"></path></svg>